<svg xmlns="http://www.w3.org/2000/svg" viewBox="0 0 1672.15 305.65"><defs><style>.cls-1{fill:#1d1d1b;}</style></defs><g id="Layer_2" data-name="Layer 2"><g id="Layer_1-2" data-name="Layer 1"><path class="cls-1" d="M535.26,0,377.74,305.12h48.33l44.17-87.54H643.59l44,87.54h49.62L581,0ZM487.77,182.84,545.62,68.18c2.58-5.6,5.17-10.78,7.33-16.38,1.73-4.32,3-8.64,4.31-12.53.86,3.89,2.17,7.76,3.45,11.65,2.17,5.18,4.76,10.37,6.91,15.55l58.51,116.38H487.77Z"></path><rect class="cls-1" x="1254.29" y="0.98" width="44.45" height="304.67"></rect><polygon class="cls-1" points="1470.18 268.53 1470.18 0.97 1427.03 0.97 1427.03 305.65 1672.15 305.65 1672.15 268.53 1470.18 268.53"></polygon><path class="cls-1" d="M1133.13,90.72c0-36.68-17.27-56.51-27.2-65.15C1079.61,1.84,1047.24,1.4,1020.49,1H813.34V305.64h43.15v-268h167c19.84.44,41.84.44,55.66,22.44,6.06,9.07,9.08,20.71,9.08,32.37,0,10.79-2.6,22.43-10.37,32.36-17.26,22.89-47.48,23.32-71.21,23.32H887.17v35.81h116.49l103.14,121.7h56.53L1051.14,177C1071.41,173.59,1133.13,163.67,1133.13,90.72Z"></path><path class="cls-1" d="M267.15,147.74c.86,0,12.08-5.18,15.11-6.91,13.81-8.63,27.62-30.68,27.62-60.46,0-12.52-2.16-30.22-15.12-47.05C270.16,2.25,228.31,1,195.51,1H0V305.65H195.51c32.8,0,74.65,0,102.28-23.31,18.14-15.11,27.19-38,27.19-61.72C325,162.36,280.52,152.06,267.15,147.74ZM263.7,255.59c-16.4,13.81-37.11,14.67-55.24,14.67H43.16V36.37H195.08c16,0,34.95,0,50.07,9.49C255.93,53.18,265,65.27,265,83.41c0,14.66-6.46,36.29-21.58,44.48-12.07,6.9-27.61,6.9-41,6.9H74.29v35H208.46c17.69,0,38,.44,53.52,12.52,3.44,3,18.11,9.46,18.11,34.91C280.1,223.65,279.66,241.78,263.7,255.59Z"></path></g></g></svg>