<?xml version="1.0" encoding="UTF-8"?><svg id="Layer_1" xmlns="http://www.w3.org/2000/svg" viewBox="0 0 1943.72 448.16"><defs><style>.cls-1{fill:#1d1d1b;}</style></defs><g id="Layer_2"><g id="Layer_1-2"><path class="cls-1" d="m671.05,71.26l-157.52,305.12h48.33l44.17-87.54h173.35l44,87.54h49.62l-156.21-305.12h-45.74Zm-47.49,182.84l57.85-114.66c2.58-5.6,5.17-10.78,7.33-16.38,1.73-4.32,3-8.64,4.31-12.53.86,3.89,2.17,7.76,3.45,11.65,2.17,5.18,4.76,10.37,6.91,15.55l58.51,116.38h-138.36Z"/><rect class="cls-1" x="1390.08" y="72.24" width="44.45" height="304.67"/><polygon class="cls-1" points="1605.97 339.79 1605.97 72.23 1562.82 72.23 1562.82 376.91 1807.94 376.91 1807.94 339.79 1605.97 339.79"/><path class="cls-1" d="m1268.92,161.98c0-36.68-17.27-56.51-27.2-65.15-26.32-23.73-58.69-24.17-85.44-24.57h-207.15v304.64h43.15V108.9h167c19.84.44,41.84.44,55.66,22.44,6.06,9.07,9.08,20.71,9.08,32.37,0,10.79-2.6,22.43-10.37,32.36-17.26,22.89-47.48,23.32-71.21,23.32h-119.48v35.81h116.49l103.14,121.7h56.53l-112.19-128.64c20.27-3.41,81.99-13.33,81.99-86.28Z"/><path class="cls-1" d="m402.94,219c.86,0,12.08-5.18,15.11-6.91,13.81-8.63,27.62-30.68,27.62-60.46,0-12.52-2.16-30.22-15.12-47.05-24.6-31.07-66.45-32.32-99.25-32.32h-195.51v304.65h195.51c32.8,0,74.65,0,102.28-23.31,18.14-15.11,27.19-38,27.19-61.72.02-58.26-44.46-68.56-57.83-72.88Zm-3.45,107.85c-16.4,13.81-37.11,14.67-55.24,14.67h-165.3V107.63h151.92c16,0,34.95,0,50.07,9.49,10.78,7.32,19.85,19.41,19.85,37.55,0,14.66-6.46,36.29-21.58,44.48-12.07,6.9-27.61,6.9-41,6.9h-128.13v35h134.17c17.69,0,38,.44,53.52,12.52,3.44,3,18.11,9.46,18.11,34.91,0,6.43-.43,24.56-16.39,38.37Z"/></g></g></svg>