<svg xmlns="http://www.w3.org/2000/svg" xmlns:xlink="http://www.w3.org/1999/xlink" version="1.1" id="Ebene_1" x="0px" y="0px" viewBox="0 0 150 50" style="enable-background:new 0 0 150 50;" xml:space="preserve">
<style type="text/css">
	.st0{fill:#010101;}
	.st1{fill-rule:evenodd;clip-rule:evenodd;fill:#010101;}
	.st2{fill:#EA0029;}
	.st3{fill:#FFFFFF;}
</style>
<g>
	<path class="st0" d="M101.5,24.5l1.5,0c1.4,0,2.3-0.6,2.3-1.9c0-1-0.8-1.8-2-1.8h-2.9h-0.6v11.9h-6.3V17.3l2.4,0h4.3h0.2h5.2   c3.9,0,5.7,1.8,5.7,4.5c0,3.7-3.3,4.2-3.3,4.2l3.1,6.5h-6.5L101.5,24.5L101.5,24.5z"/>
	<polygon class="st0" points="70.7,17.3 70.7,32.7 63.4,32.7 56.7,23.7 56.7,32.7 51,32.7 51,17.3 58.4,17.3 64.9,26.4 64.9,17.3    70.7,17.3  "/>
	<path class="st1" d="M141.4,17.3c5.5,0,8.6,3.3,8.6,7.7c0,4.6-3.1,7.7-8.6,7.7h-2.7h-3.4h-3.4V17.3l1.4,0h4.8H141.4L141.4,17.3z    M139.9,20.8h-1.8V29h1.8c3,0,3.9-2.2,3.9-4.1C143.8,23,143.3,20.8,139.9,20.8L139.9,20.8z"/>
	<polygon class="st0" points="129.5,29 129.5,32.7 119,32.7 113.7,32.7 113.7,17.3 119.2,17.3 120.7,17.3 129.5,17.3 129.5,20.8    120.1,20.8 120.1,23.2 127.8,23.2 127.8,26.6 120.1,26.6 120.1,29 129.5,29  "/>
	<polygon class="st0" points="39.6,17.3 33.7,24.5 40.4,32.7 33.2,32.7 27.3,24.5 32.7,17.3 39.6,17.3  "/>
	<polygon class="st0" points="48.3,17.3 48.3,32.7 41.9,32.7 41.9,17.3 48.3,17.3  "/>
	<path class="st1" d="M82.8,17.3c5.5,0,8.6,3.3,8.6,7.7c0,4.6-3.1,7.7-8.6,7.7h-2.7h-3.4h-3.4V17.3l1.4,0h4.8H82.8L82.8,17.3z    M81.4,20.8h-1.8V29h1.8c3,0,3.9-2.2,3.9-4.1C85.2,23,84.7,20.8,81.4,20.8L81.4,20.8z"/>
	<polygon class="st2" points="0,17.3 15.1,17.3 15.1,32.7 0,32.7 0,17.3  "/>
	<polygon class="st0" points="26.7,17.3 26.7,32.7 20.3,32.7 20.3,17.3 26.7,17.3  "/>
	<path class="st3" d="M13.5,25.5c-0.2,0-0.4,0.2-0.4,0.4c0,0.2,0.2,0.4,0.4,0.4c0.2,0,0.4-0.2,0.4-0.4   C13.9,25.7,13.7,25.5,13.5,25.5L13.5,25.5z M7.6,24.4c-0.2,0-0.4,0.2-0.4,0.4c0,0.2,0.2,0.4,0.4,0.4c0.2,0,0.4-0.2,0.4-0.4   C8,24.6,7.8,24.4,7.6,24.4L7.6,24.4z M12.7,27.2c-1.9,0.9-3.9,0.4-5.1-1.2c-1.2,1.6-3.2,2.2-5.1,1.2l1.1,2h8L12.7,27.2L12.7,27.2z    M1.7,25.5c-0.2,0-0.4,0.2-0.4,0.4c0,0.2,0.2,0.4,0.4,0.4c0.2,0,0.4-0.2,0.4-0.4C2.1,25.7,1.9,25.5,1.7,25.5L1.7,25.5z M7.6,23.9   c0.5,0,0.9,0.4,0.9,0.9c0,0.4-0.2,0.7-0.5,0.8c0.6,0.8,1.4,1.4,2.5,1.5c0.7,0,1.6-0.1,2.2-0.6c-0.2-0.2-0.3-0.4-0.3-0.7   c0-0.5,0.4-0.9,0.9-0.9c0.5,0,0.9,0.4,0.9,0.9c0,0.5-0.4,0.9-0.9,0.9l-1.6,2.9H3.3l-1.6-2.9c-0.5,0-0.9-0.4-0.9-0.9   c0-0.5,0.4-0.9,0.9-0.9c0.5,0,0.9,0.4,0.9,0.9c0,0.3-0.1,0.5-0.3,0.7C3,27,3.9,27.2,4.6,27.1c1.1,0,1.9-0.7,2.5-1.5   c-0.3-0.2-0.5-0.5-0.5-0.8C6.6,24.3,7.1,23.9,7.6,23.9L7.6,23.9z"/>
</g>
</svg>